<mxfile host="app.diagrams.net" agent="Mozilla/5.0 (Windows NT 10.0; Win64; x64) AppleWebKit/537.36 (KHTML, like Gecko) Chrome/140.0.0.0 Safari/537.36" version="28.2.3">
  <diagram name="ページ1" id="MJAz-VtTbIhIS10xH3cN">
    <mxGraphModel dx="1350" dy="1600" grid="0" gridSize="10" guides="1" tooltips="1" connect="1" arrows="1" fold="1" page="1" pageScale="1" pageWidth="827" pageHeight="1169" math="0" shadow="0">
      <root>
        <mxCell id="0" />
        <mxCell id="1" parent="0" />
        <mxCell id="_r5Ha-2MLwBzfNucuxSq-2" value="&lt;div style=&quot;line-height: 0%;&quot;&gt;&lt;div class=&quot;paragraph normal ng-star-inserted&quot; data-start-index=&quot;0&quot; style=&quot;font-style: normal; font-variant: normal; font-size-adjust: none; font-kerning: auto; font-optical-sizing: auto; font-feature-settings: normal; font-variation-settings: normal; font-weight: 400; font-stretch: normal; font-family: &amp;quot;Google Sans Text&amp;quot;, &amp;quot;Google Sans&amp;quot;, sans-serif; letter-spacing: normal; margin-block-end: 0.75rem;&quot;&gt;&lt;font style=&quot;font-size: 10px;&quot;&gt;&lt;span data-start-index=&quot;0&quot; class=&quot;ng-star-inserted&quot;&gt;クラウドサービス（Cloud Services）とは、&lt;/span&gt;&lt;b data-start-index=&quot;27&quot; class=&quot;ng-star-inserted&quot;&gt;IT技術の利用範囲が非常に広い&lt;/b&gt;&lt;span data-start-index=&quot;42&quot; class=&quot;ng-star-inserted&quot;&gt;中で、ソフトウェア開発などを行うために利用されるサービス群です&lt;/span&gt;&lt;span style=&quot;&quot; class=&quot;ng-star-inserted&quot;&gt;&lt;button class=&quot;xap-inline-dialog citation-marker ng-star-inserted&quot; aria-haspopup=&quot;dialog&quot; aria-describedby=&quot;cdk-describedby-message-ng-1-17&quot; data-disabled=&quot;false&quot; style=&quot;font-style: normal; font-variant: normal; font-size-adjust: none; font-kerning: auto; font-optical-sizing: auto; font-feature-settings: normal; font-variation-settings: normal; font-weight: 500; font-stretch: normal; line-height: 16px; font-family: &amp;quot;Google Sans Text&amp;quot;, &amp;quot;Google Sans&amp;quot;, sans-serif; letter-spacing: 0.096px; border: 0px; border-radius: 50%; height: 20px; margin-inline-start: 4px; min-width: 20px; cursor: pointer; background-color: rgb(237, 239, 250); color: rgb(27, 27, 28); transition: opacity 0.2s linear; opacity: 1; user-select: none;&quot;&gt;&lt;/button&gt;&lt;/span&gt;&lt;span data-start-index=&quot;73&quot; class=&quot;ng-star-inserted&quot;&gt;。&lt;/span&gt;&lt;/font&gt;&lt;/div&gt;&lt;div class=&quot;paragraph normal ng-star-inserted&quot; data-start-index=&quot;74&quot; style=&quot;font-style: normal; font-variant: normal; font-size-adjust: none; font-kerning: auto; font-optical-sizing: auto; font-feature-settings: normal; font-variation-settings: normal; font-weight: 400; font-stretch: normal; font-family: &amp;quot;Google Sans Text&amp;quot;, &amp;quot;Google Sans&amp;quot;, sans-serif; letter-spacing: normal; margin-block-end: 0.75rem;&quot;&gt;&lt;font style=&quot;font-size: 10px;&quot;&gt;&lt;span data-start-index=&quot;74&quot; class=&quot;ng-star-inserted&quot;&gt;ソースでは、クラウドサービスについて、その種類、顧客が得られるメリット、および利用する際の欠点やリスクについて説明されています&lt;/span&gt;&lt;span class=&quot;ng-star-inserted&quot;&gt;&lt;button class=&quot;xap-inline-dialog citation-marker ng-star-inserted&quot; aria-haspopup=&quot;dialog&quot; aria-describedby=&quot;cdk-describedby-message-ng-1-17&quot; data-disabled=&quot;false&quot; style=&quot;font-style: normal; font-variant: normal; font-size-adjust: none; font-kerning: auto; font-optical-sizing: auto; font-feature-settings: normal; font-variation-settings: normal; font-weight: 500; font-stretch: normal; line-height: 16px; font-family: &amp;quot;Google Sans Text&amp;quot;, &amp;quot;Google Sans&amp;quot;, sans-serif; letter-spacing: 0.096px; border: 0px; border-radius: 50%; height: 20px; margin-inline-start: 4px; min-width: 20px; cursor: pointer; background-color: rgb(237, 239, 250); color: rgb(27, 27, 28); transition: opacity 0.2s linear; opacity: 1; user-select: none;&quot;&gt;&lt;/button&gt;&lt;/span&gt;&lt;span class=&quot;ng-star-inserted&quot;&gt;&lt;button class=&quot;xap-inline-dialog citation-marker ng-star-inserted&quot; aria-haspopup=&quot;dialog&quot; aria-describedby=&quot;cdk-describedby-message-ng-1-17&quot; data-disabled=&quot;false&quot; style=&quot;font-style: normal; font-variant: normal; font-size-adjust: none; font-kerning: auto; font-optical-sizing: auto; font-feature-settings: normal; font-variation-settings: normal; font-weight: 500; font-stretch: normal; line-height: 16px; font-family: &amp;quot;Google Sans Text&amp;quot;, &amp;quot;Google Sans&amp;quot;, sans-serif; letter-spacing: 0.096px; border: 0px; border-radius: 50%; height: 20px; margin-inline-start: 4px; min-width: 20px; cursor: pointer; background-color: rgb(237, 239, 250); color: rgb(27, 27, 28); transition: opacity 0.2s linear; opacity: 1; user-select: none;&quot;&gt;&lt;/button&gt;&lt;/span&gt;&lt;span data-start-index=&quot;137&quot; class=&quot;ng-star-inserted&quot;&gt;。&lt;/span&gt;&lt;/font&gt;&lt;/div&gt;&lt;div class=&quot;paragraph heading3 ng-star-inserted&quot; data-start-index=&quot;138&quot; style=&quot;font-style: normal; font-variant: normal; font-size-adjust: none; font-kerning: auto; font-optical-sizing: auto; font-feature-settings: normal; font-variation-settings: normal; font-weight: 500; font-stretch: normal; font-family: &amp;quot;Google Sans Text&amp;quot;, &amp;quot;Google Sans&amp;quot;, sans-serif; letter-spacing: normal; margin-block-end: 0.75rem;&quot;&gt;&lt;span data-start-index=&quot;138&quot; class=&quot;ng-star-inserted&quot;&gt;&lt;font style=&quot;font-size: 10px;&quot;&gt;クラウドサービスの種類&lt;/font&gt;&lt;/span&gt;&lt;/div&gt;&lt;div class=&quot;paragraph normal ng-star-inserted&quot; data-start-index=&quot;149&quot; style=&quot;font-style: normal; font-variant: normal; font-size-adjust: none; font-kerning: auto; font-optical-sizing: auto; font-feature-settings: normal; font-variation-settings: normal; font-weight: 400; font-stretch: normal; font-family: &amp;quot;Google Sans Text&amp;quot;, &amp;quot;Google Sans&amp;quot;, sans-serif; letter-spacing: normal; margin-block-end: 0.75rem;&quot;&gt;&lt;font style=&quot;font-size: 10px;&quot;&gt;&lt;span data-start-index=&quot;149&quot; class=&quot;ng-star-inserted&quot;&gt;クラウドサービスは、提供される機能の範囲によって主に以下の3つに分類されます&lt;/span&gt;&lt;span class=&quot;ng-star-inserted&quot;&gt;&lt;button class=&quot;xap-inline-dialog citation-marker ng-star-inserted&quot; aria-haspopup=&quot;dialog&quot; aria-describedby=&quot;cdk-describedby-message-ng-1-17&quot; data-disabled=&quot;false&quot; style=&quot;font-style: normal; font-variant: normal; font-size-adjust: none; font-kerning: auto; font-optical-sizing: auto; font-feature-settings: normal; font-variation-settings: normal; font-weight: 500; font-stretch: normal; line-height: 16px; font-family: &amp;quot;Google Sans Text&amp;quot;, &amp;quot;Google Sans&amp;quot;, sans-serif; letter-spacing: 0.096px; border: 0px; border-radius: 50%; height: 20px; margin-inline-start: 4px; min-width: 20px; cursor: pointer; background-color: rgb(237, 239, 250); color: rgb(27, 27, 28); transition: opacity 0.2s linear; opacity: 1; user-select: none;&quot;&gt;&lt;/button&gt;&lt;/span&gt;&lt;span data-start-index=&quot;187&quot; class=&quot;ng-star-inserted&quot;&gt;。&lt;/span&gt;&lt;/font&gt;&lt;/div&gt;&lt;div class=&quot;paragraph normal ng-star-inserted&quot; data-start-index=&quot;188&quot; style=&quot;font-style: normal; font-variant: normal; font-size-adjust: none; font-kerning: auto; font-optical-sizing: auto; font-feature-settings: normal; font-variation-settings: normal; font-weight: 400; font-stretch: normal; font-family: &amp;quot;Google Sans Text&amp;quot;, &amp;quot;Google Sans&amp;quot;, sans-serif; letter-spacing: normal; margin-block-end: 0.75rem;&quot;&gt;&lt;font style=&quot;font-size: 10px;&quot;&gt;&lt;span class=&quot;ng-star-inserted&quot;&gt;1. &lt;/span&gt;&lt;b data-start-index=&quot;188&quot; class=&quot;ng-star-inserted&quot;&gt;IaaS (Infrastructure as a Service)&lt;/b&gt;&lt;span data-start-index=&quot;222&quot; class=&quot;ng-star-inserted&quot;&gt;：&lt;/span&gt;&lt;span data-start-index=&quot;223&quot; class=&quot;ng-star-inserted&quot;&gt; &lt;/span&gt;&lt;span data-start-index=&quot;224&quot; class=&quot;ng-star-inserted&quot;&gt;顧客が所有するシステムの&lt;/span&gt;&lt;b data-start-index=&quot;236&quot; class=&quot;ng-star-inserted&quot;&gt;ハードの部分のみ&lt;/b&gt;&lt;span data-start-index=&quot;244&quot; class=&quot;ng-star-inserted&quot;&gt;をクラウド会社のサーバーに変え、自社で使用していたOSやアプリケーションソフトをクラウド会社のサーバーに移して使用する形態です&lt;/span&gt;&lt;span class=&quot;ng-star-inserted&quot;&gt;&lt;button class=&quot;xap-inline-dialog citation-marker ng-star-inserted&quot; aria-haspopup=&quot;dialog&quot; aria-describedby=&quot;cdk-describedby-message-ng-1-17&quot; data-disabled=&quot;false&quot; style=&quot;font-style: normal; font-variant: normal; font-size-adjust: none; font-kerning: auto; font-optical-sizing: auto; font-feature-settings: normal; font-variation-settings: normal; font-weight: 500; font-stretch: normal; line-height: 16px; font-family: &amp;quot;Google Sans Text&amp;quot;, &amp;quot;Google Sans&amp;quot;, sans-serif; letter-spacing: 0.096px; border: 0px; border-radius: 50%; height: 20px; margin-inline-start: 4px; min-width: 20px; cursor: pointer; background-color: rgb(237, 239, 250); color: rgb(27, 27, 28); transition: opacity 0.2s linear; opacity: 1; user-select: none;&quot;&gt;&lt;/button&gt;&lt;/span&gt;&lt;span data-start-index=&quot;307&quot; class=&quot;ng-star-inserted&quot;&gt;。&lt;/span&gt;&lt;/font&gt;&lt;/div&gt;&lt;div class=&quot;paragraph normal ng-star-inserted&quot; data-start-index=&quot;308&quot; style=&quot;font-style: normal; font-variant: normal; font-size-adjust: none; font-kerning: auto; font-optical-sizing: auto; font-feature-settings: normal; font-variation-settings: normal; font-weight: 400; font-stretch: normal; font-family: &amp;quot;Google Sans Text&amp;quot;, &amp;quot;Google Sans&amp;quot;, sans-serif; letter-spacing: normal; margin-block-end: 0.75rem;&quot;&gt;&lt;font style=&quot;font-size: 10px;&quot;&gt;&lt;span class=&quot;ng-star-inserted&quot;&gt;2. &lt;/span&gt;&lt;b data-start-index=&quot;308&quot; class=&quot;ng-star-inserted&quot;&gt;PaaS (Platform as a Service)&lt;/b&gt;&lt;span data-start-index=&quot;336&quot; class=&quot;ng-star-inserted&quot;&gt;：&lt;/span&gt;&lt;span data-start-index=&quot;337&quot; class=&quot;ng-star-inserted&quot;&gt; &lt;/span&gt;&lt;span data-start-index=&quot;338&quot; class=&quot;ng-star-inserted&quot;&gt;クラウド上で、ソフトウェアの&lt;/span&gt;&lt;b data-start-index=&quot;352&quot; class=&quot;ng-star-inserted&quot;&gt;開発・実行環境&lt;/b&gt;&lt;span data-start-index=&quot;359&quot; class=&quot;ng-star-inserted&quot;&gt;をサービスとして提供する形態です&lt;/span&gt;&lt;span class=&quot;ng-star-inserted&quot;&gt;&lt;button class=&quot;xap-inline-dialog citation-marker ng-star-inserted&quot; aria-haspopup=&quot;dialog&quot; aria-describedby=&quot;cdk-describedby-message-ng-1-17&quot; data-disabled=&quot;false&quot; style=&quot;font-style: normal; font-variant: normal; font-size-adjust: none; font-kerning: auto; font-optical-sizing: auto; font-feature-settings: normal; font-variation-settings: normal; font-weight: 500; font-stretch: normal; line-height: 16px; font-family: &amp;quot;Google Sans Text&amp;quot;, &amp;quot;Google Sans&amp;quot;, sans-serif; letter-spacing: 0.096px; border: 0px; border-radius: 50%; height: 20px; margin-inline-start: 4px; min-width: 20px; cursor: pointer; background-color: rgb(237, 239, 250); color: rgb(27, 27, 28); transition: opacity 0.2s linear; opacity: 1; user-select: none;&quot;&gt;&lt;/button&gt;&lt;/span&gt;&lt;span data-start-index=&quot;375&quot; class=&quot;ng-star-inserted&quot;&gt;。&lt;/span&gt;&lt;b data-start-index=&quot;376&quot; class=&quot;ng-star-inserted&quot;&gt;Cloud Native&lt;/b&gt;&lt;span data-start-index=&quot;388&quot; class=&quot;ng-star-inserted&quot;&gt;はこのPaaSの例として挙げられています&lt;/span&gt;&lt;span class=&quot;ng-star-inserted&quot;&gt;&lt;button class=&quot;xap-inline-dialog citation-marker ng-star-inserted&quot; aria-haspopup=&quot;dialog&quot; aria-describedby=&quot;cdk-describedby-message-ng-1-17&quot; data-disabled=&quot;false&quot; style=&quot;font-style: normal; font-variant: normal; font-size-adjust: none; font-kerning: auto; font-optical-sizing: auto; font-feature-settings: normal; font-variation-settings: normal; font-weight: 500; font-stretch: normal; line-height: 16px; font-family: &amp;quot;Google Sans Text&amp;quot;, &amp;quot;Google Sans&amp;quot;, sans-serif; letter-spacing: 0.096px; border: 0px; border-radius: 50%; height: 20px; margin-inline-start: 4px; min-width: 20px; cursor: pointer; background-color: rgb(237, 239, 250); color: rgb(27, 27, 28); transition: opacity 0.2s linear; opacity: 1; user-select: none;&quot;&gt;&lt;/button&gt;&lt;/span&gt;&lt;span data-start-index=&quot;408&quot; class=&quot;ng-star-inserted&quot;&gt;。&lt;/span&gt;&lt;/font&gt;&lt;/div&gt;&lt;div class=&quot;paragraph normal ng-star-inserted&quot; data-start-index=&quot;409&quot; style=&quot;font-style: normal; font-variant: normal; font-size-adjust: none; font-kerning: auto; font-optical-sizing: auto; font-feature-settings: normal; font-variation-settings: normal; font-weight: 400; font-stretch: normal; font-family: &amp;quot;Google Sans Text&amp;quot;, &amp;quot;Google Sans&amp;quot;, sans-serif; letter-spacing: normal; margin-block-end: 0.75rem;&quot;&gt;&lt;font style=&quot;font-size: 10px;&quot;&gt;&lt;span class=&quot;ng-star-inserted&quot;&gt;3. &lt;/span&gt;&lt;b data-start-index=&quot;409&quot; class=&quot;ng-star-inserted&quot;&gt;SaaS (Software as a Service)&lt;/b&gt;&lt;span data-start-index=&quot;437&quot; class=&quot;ng-star-inserted&quot;&gt;：&lt;/span&gt;&lt;span data-start-index=&quot;438&quot; class=&quot;ng-star-inserted&quot;&gt; &lt;/span&gt;&lt;b data-start-index=&quot;439&quot; class=&quot;ng-star-inserted&quot;&gt;完成したアプリケーションソフト&lt;/b&gt;&lt;span data-start-index=&quot;454&quot; class=&quot;ng-star-inserted&quot;&gt;の能力をクラウドで提供する形態です&lt;/span&gt;&lt;span class=&quot;ng-star-inserted&quot;&gt;&lt;button class=&quot;xap-inline-dialog citation-marker ng-star-inserted&quot; aria-haspopup=&quot;dialog&quot; aria-describedby=&quot;cdk-describedby-message-ng-1-17&quot; data-disabled=&quot;false&quot; style=&quot;font-style: normal; font-variant: normal; font-size-adjust: none; font-kerning: auto; font-optical-sizing: auto; font-feature-settings: normal; font-variation-settings: normal; font-weight: 500; font-stretch: normal; line-height: 16px; font-family: &amp;quot;Google Sans Text&amp;quot;, &amp;quot;Google Sans&amp;quot;, sans-serif; letter-spacing: 0.096px; border: 0px; border-radius: 50%; height: 20px; margin-inline-start: 4px; min-width: 20px; cursor: pointer; background-color: rgb(237, 239, 250); color: rgb(27, 27, 28); transition: opacity 0.2s linear; opacity: 1; user-select: none;&quot;&gt;&lt;/button&gt;&lt;/span&gt;&lt;span data-start-index=&quot;471&quot; class=&quot;ng-star-inserted&quot;&gt;。例としてSalesforceが挙げられています&lt;/span&gt;&lt;span class=&quot;ng-star-inserted&quot;&gt;&lt;button class=&quot;xap-inline-dialog citation-marker ng-star-inserted&quot; aria-haspopup=&quot;dialog&quot; aria-describedby=&quot;cdk-describedby-message-ng-1-17&quot; data-disabled=&quot;false&quot; style=&quot;font-style: normal; font-variant: normal; font-size-adjust: none; font-kerning: auto; font-optical-sizing: auto; font-feature-settings: normal; font-variation-settings: normal; font-weight: 500; font-stretch: normal; line-height: 16px; font-family: &amp;quot;Google Sans Text&amp;quot;, &amp;quot;Google Sans&amp;quot;, sans-serif; letter-spacing: 0.096px; border: 0px; border-radius: 50%; height: 20px; margin-inline-start: 4px; min-width: 20px; cursor: pointer; background-color: rgb(237, 239, 250); color: rgb(27, 27, 28); transition: opacity 0.2s linear; opacity: 1; user-select: none;&quot;&gt;&lt;/button&gt;&lt;/span&gt;&lt;span data-start-index=&quot;495&quot; class=&quot;ng-star-inserted&quot;&gt;。&lt;/span&gt;&lt;/font&gt;&lt;/div&gt;&lt;div class=&quot;paragraph heading3 ng-star-inserted&quot; data-start-index=&quot;496&quot; style=&quot;font-style: normal; font-variant: normal; font-size-adjust: none; font-kerning: auto; font-optical-sizing: auto; font-feature-settings: normal; font-variation-settings: normal; font-weight: 500; font-stretch: normal; font-family: &amp;quot;Google Sans Text&amp;quot;, &amp;quot;Google Sans&amp;quot;, sans-serif; letter-spacing: normal; margin-block-end: 0.75rem;&quot;&gt;&lt;span data-start-index=&quot;496&quot; class=&quot;ng-star-inserted&quot;&gt;&lt;font style=&quot;font-size: 10px;&quot;&gt;顧客のメリット&lt;/font&gt;&lt;/span&gt;&lt;/div&gt;&lt;div class=&quot;paragraph normal ng-star-inserted&quot; data-start-index=&quot;503&quot; style=&quot;font-style: normal; font-variant: normal; font-size-adjust: none; font-kerning: auto; font-optical-sizing: auto; font-feature-settings: normal; font-variation-settings: normal; font-weight: 400; font-stretch: normal; font-family: &amp;quot;Google Sans Text&amp;quot;, &amp;quot;Google Sans&amp;quot;, sans-serif; letter-spacing: normal; margin-block-end: 0.75rem;&quot;&gt;&lt;font style=&quot;font-size: 10px;&quot;&gt;&lt;span data-start-index=&quot;503&quot; class=&quot;ng-star-inserted&quot;&gt;自社でITのハードウェアを持つ場合と比較して、クラウドサービスを利用する方が良いとされる点は以下の通りです&lt;/span&gt;&lt;span class=&quot;ng-star-inserted&quot;&gt;&lt;button class=&quot;xap-inline-dialog citation-marker ng-star-inserted&quot; aria-haspopup=&quot;dialog&quot; aria-describedby=&quot;cdk-describedby-message-ng-1-17&quot; data-disabled=&quot;false&quot; style=&quot;font-style: normal; font-variant: normal; font-size-adjust: none; font-kerning: auto; font-optical-sizing: auto; font-feature-settings: normal; font-variation-settings: normal; font-weight: 500; font-stretch: normal; line-height: 16px; font-family: &amp;quot;Google Sans Text&amp;quot;, &amp;quot;Google Sans&amp;quot;, sans-serif; letter-spacing: 0.096px; border: 0px; border-radius: 50%; height: 20px; margin-inline-start: 4px; min-width: 20px; cursor: pointer; background-color: rgb(237, 239, 250); color: rgb(27, 27, 28); transition: opacity 0.2s linear; opacity: 1; user-select: none;&quot;&gt;&lt;/button&gt;&lt;/span&gt;&lt;span class=&quot;ng-star-inserted&quot;&gt;&lt;button class=&quot;xap-inline-dialog citation-marker ng-star-inserted&quot; aria-haspopup=&quot;dialog&quot; aria-describedby=&quot;cdk-describedby-message-ng-1-17&quot; data-disabled=&quot;false&quot; style=&quot;font-style: normal; font-variant: normal; font-size-adjust: none; font-kerning: auto; font-optical-sizing: auto; font-feature-settings: normal; font-variation-settings: normal; font-weight: 500; font-stretch: normal; line-height: 16px; font-family: &amp;quot;Google Sans Text&amp;quot;, &amp;quot;Google Sans&amp;quot;, sans-serif; letter-spacing: 0.096px; border: 0px; border-radius: 50%; height: 20px; margin-inline-start: 4px; min-width: 20px; cursor: pointer; background-color: rgb(237, 239, 250); color: rgb(27, 27, 28); transition: opacity 0.2s linear; opacity: 1; user-select: none;&quot;&gt;&lt;/button&gt;&lt;/span&gt;&lt;span data-start-index=&quot;556&quot; class=&quot;ng-star-inserted&quot;&gt;。&lt;/span&gt;&lt;/font&gt;&lt;/div&gt;&lt;div class=&quot;paragraph normal ng-star-inserted&quot; data-start-index=&quot;557&quot; style=&quot;font-style: normal; font-variant: normal; font-size-adjust: none; font-kerning: auto; font-optical-sizing: auto; font-feature-settings: normal; font-variation-settings: normal; font-weight: 400; font-stretch: normal; font-family: &amp;quot;Google Sans Text&amp;quot;, &amp;quot;Google Sans&amp;quot;, sans-serif; letter-spacing: normal; margin-block-end: 0.75rem;&quot;&gt;&lt;font style=&quot;font-size: 10px;&quot;&gt;&lt;span class=&quot;ng-star-inserted&quot;&gt;• &lt;/span&gt;&lt;b data-start-index=&quot;557&quot; class=&quot;ng-star-inserted&quot;&gt;安価&lt;/b&gt;&lt;span data-start-index=&quot;559&quot; class=&quot;ng-star-inserted&quot;&gt;：自社でハードウェアを持つよりも安価になると想定される場合が多いです&lt;/span&gt;&lt;span class=&quot;ng-star-inserted&quot;&gt;&lt;button class=&quot;xap-inline-dialog citation-marker ng-star-inserted&quot; aria-haspopup=&quot;dialog&quot; aria-describedby=&quot;cdk-describedby-message-ng-1-17&quot; data-disabled=&quot;false&quot; style=&quot;font-style: normal; font-variant: normal; font-size-adjust: none; font-kerning: auto; font-optical-sizing: auto; font-feature-settings: normal; font-variation-settings: normal; font-weight: 500; font-stretch: normal; line-height: 16px; font-family: &amp;quot;Google Sans Text&amp;quot;, &amp;quot;Google Sans&amp;quot;, sans-serif; letter-spacing: 0.096px; border: 0px; border-radius: 50%; height: 20px; margin-inline-start: 4px; min-width: 20px; cursor: pointer; background-color: rgb(237, 239, 250); color: rgb(27, 27, 28); transition: opacity 0.2s linear; opacity: 1; user-select: none;&quot;&gt;&lt;/button&gt;&lt;/span&gt;&lt;span data-start-index=&quot;593&quot; class=&quot;ng-star-inserted&quot;&gt;。&lt;/span&gt;&lt;/font&gt;&lt;/div&gt;&lt;div class=&quot;paragraph normal ng-star-inserted&quot; data-start-index=&quot;594&quot; style=&quot;font-style: normal; font-variant: normal; font-size-adjust: none; font-kerning: auto; font-optical-sizing: auto; font-feature-settings: normal; font-variation-settings: normal; font-weight: 400; font-stretch: normal; font-family: &amp;quot;Google Sans Text&amp;quot;, &amp;quot;Google Sans&amp;quot;, sans-serif; letter-spacing: normal; margin-block-end: 0.75rem;&quot;&gt;&lt;font style=&quot;font-size: 10px;&quot;&gt;&lt;span class=&quot;ng-star-inserted&quot;&gt;• &lt;/span&gt;&lt;b data-start-index=&quot;594&quot; class=&quot;ng-star-inserted&quot;&gt;スケーラビリティ&lt;/b&gt;&lt;span data-start-index=&quot;602&quot; class=&quot;ng-star-inserted&quot;&gt;：必要に応じてリソースを&lt;/span&gt;&lt;b data-start-index=&quot;614&quot; class=&quot;ng-star-inserted&quot;&gt;増減&lt;/b&gt;&lt;span data-start-index=&quot;616&quot; class=&quot;ng-star-inserted&quot;&gt;できます&lt;/span&gt;&lt;span class=&quot;ng-star-inserted&quot;&gt;&lt;button class=&quot;xap-inline-dialog citation-marker ng-star-inserted&quot; aria-haspopup=&quot;dialog&quot; aria-describedby=&quot;cdk-describedby-message-ng-1-17&quot; data-disabled=&quot;false&quot; style=&quot;font-style: normal; font-variant: normal; font-size-adjust: none; font-kerning: auto; font-optical-sizing: auto; font-feature-settings: normal; font-variation-settings: normal; font-weight: 500; font-stretch: normal; line-height: 16px; font-family: &amp;quot;Google Sans Text&amp;quot;, &amp;quot;Google Sans&amp;quot;, sans-serif; letter-spacing: 0.096px; border: 0px; border-radius: 50%; height: 20px; margin-inline-start: 4px; min-width: 20px; cursor: pointer; background-color: rgb(237, 239, 250); color: rgb(27, 27, 28); transition: opacity 0.2s linear; opacity: 1; user-select: none;&quot;&gt;&lt;/button&gt;&lt;/span&gt;&lt;span data-start-index=&quot;620&quot; class=&quot;ng-star-inserted&quot;&gt;。例えば、年末のピーク時のみ多くのサーバーを利用し、IT能力が必要ない場合はサーバーの数を減らせます&lt;/span&gt;&lt;span class=&quot;ng-star-inserted&quot;&gt;&lt;button class=&quot;xap-inline-dialog citation-marker ng-star-inserted&quot; aria-haspopup=&quot;dialog&quot; aria-describedby=&quot;cdk-describedby-message-ng-1-17&quot; data-disabled=&quot;false&quot; style=&quot;font-style: normal; font-variant: normal; font-size-adjust: none; font-kerning: auto; font-optical-sizing: auto; font-feature-settings: normal; font-variation-settings: normal; font-weight: 500; font-stretch: normal; line-height: 16px; font-family: &amp;quot;Google Sans Text&amp;quot;, &amp;quot;Google Sans&amp;quot;, sans-serif; letter-spacing: 0.096px; border: 0px; border-radius: 50%; height: 20px; margin-inline-start: 4px; min-width: 20px; cursor: pointer; background-color: rgb(237, 239, 250); color: rgb(27, 27, 28); transition: opacity 0.2s linear; opacity: 1; user-select: none;&quot;&gt;&lt;/button&gt;&lt;/span&gt;&lt;span class=&quot;ng-star-inserted&quot;&gt;&lt;button class=&quot;xap-inline-dialog citation-marker ng-star-inserted&quot; aria-haspopup=&quot;dialog&quot; aria-describedby=&quot;cdk-describedby-message-ng-1-17&quot; data-disabled=&quot;false&quot; style=&quot;font-style: normal; font-variant: normal; font-size-adjust: none; font-kerning: auto; font-optical-sizing: auto; font-feature-settings: normal; font-variation-settings: normal; font-weight: 500; font-stretch: normal; line-height: 16px; font-family: &amp;quot;Google Sans Text&amp;quot;, &amp;quot;Google Sans&amp;quot;, sans-serif; letter-spacing: 0.096px; border: 0px; border-radius: 50%; height: 20px; margin-inline-start: 4px; min-width: 20px; cursor: pointer; background-color: rgb(237, 239, 250); color: rgb(27, 27, 28); transition: opacity 0.2s linear; opacity: 1; user-select: none;&quot;&gt;&lt;/button&gt;&lt;/span&gt;&lt;span data-start-index=&quot;670&quot; class=&quot;ng-star-inserted&quot;&gt;。&lt;/span&gt;&lt;/font&gt;&lt;/div&gt;&lt;div class=&quot;paragraph normal ng-star-inserted&quot; data-start-index=&quot;671&quot; style=&quot;font-style: normal; font-variant: normal; font-size-adjust: none; font-kerning: auto; font-optical-sizing: auto; font-feature-settings: normal; font-variation-settings: normal; font-weight: 400; font-stretch: normal; font-family: &amp;quot;Google Sans Text&amp;quot;, &amp;quot;Google Sans&amp;quot;, sans-serif; letter-spacing: normal; margin-block-end: 0.75rem;&quot;&gt;&lt;font style=&quot;font-size: 10px;&quot;&gt;&lt;span class=&quot;ng-star-inserted&quot;&gt;• &lt;/span&gt;&lt;b data-start-index=&quot;671&quot; class=&quot;ng-star-inserted&quot;&gt;高可用性 (Highly Available)&lt;/b&gt;&lt;span data-start-index=&quot;694&quot; class=&quot;ng-star-inserted&quot;&gt;：システムダウンが少ない能力を得ることができます&lt;/span&gt;&lt;span class=&quot;ng-star-inserted&quot;&gt;&lt;button class=&quot;xap-inline-dialog citation-marker ng-star-inserted&quot; aria-haspopup=&quot;dialog&quot; aria-describedby=&quot;cdk-describedby-message-ng-1-17&quot; data-disabled=&quot;false&quot; style=&quot;font-style: normal; font-variant: normal; font-size-adjust: none; font-kerning: auto; font-optical-sizing: auto; font-feature-settings: normal; font-variation-settings: normal; font-weight: 500; font-stretch: normal; line-height: 16px; font-family: &amp;quot;Google Sans Text&amp;quot;, &amp;quot;Google Sans&amp;quot;, sans-serif; letter-spacing: 0.096px; border: 0px; border-radius: 50%; height: 20px; margin-inline-start: 4px; min-width: 20px; cursor: pointer; background-color: rgb(237, 239, 250); color: rgb(27, 27, 28); transition: opacity 0.2s linear; opacity: 1; user-select: none;&quot;&gt;&lt;/button&gt;&lt;/span&gt;&lt;span data-start-index=&quot;718&quot; class=&quot;ng-star-inserted&quot;&gt;。&lt;/span&gt;&lt;/font&gt;&lt;/div&gt;&lt;div class=&quot;paragraph normal ng-star-inserted&quot; data-start-index=&quot;719&quot; style=&quot;font-style: normal; font-variant: normal; font-size-adjust: none; font-kerning: auto; font-optical-sizing: auto; font-feature-settings: normal; font-variation-settings: normal; font-stretch: normal; font-family: &amp;quot;Google Sans Text&amp;quot;, &amp;quot;Google Sans&amp;quot;, sans-serif; letter-spacing: normal; margin-block-end: 0.75rem;&quot;&gt;&lt;font style=&quot;color: rgb(255, 102, 102); font-size: 10px;&quot;&gt;&lt;b&gt;&lt;span class=&quot;ng-star-inserted&quot;&gt;• &lt;/span&gt;&lt;span data-start-index=&quot;719&quot; class=&quot;ng-star-inserted&quot;&gt;責任の軽減&lt;/span&gt;&lt;span data-start-index=&quot;724&quot; class=&quot;ng-star-inserted&quot;&gt;：故障に対して情報システム部が負う責任が軽くなると&quot;思われる&quot;（日本固有の傾向）&lt;/span&gt;&lt;span style=&quot;&quot; class=&quot;ng-star-inserted&quot;&gt;&lt;button class=&quot;xap-inline-dialog citation-marker ng-star-inserted&quot; aria-haspopup=&quot;dialog&quot; aria-describedby=&quot;cdk-describedby-message-ng-1-17&quot; data-disabled=&quot;false&quot; style=&quot;font-style: normal; font-variant: normal; font-size-adjust: none; font-kerning: auto; font-optical-sizing: auto; font-feature-settings: normal; font-variation-settings: normal; font-stretch: normal; line-height: 16px; font-family: &amp;quot;Google Sans Text&amp;quot;, &amp;quot;Google Sans&amp;quot;, sans-serif; letter-spacing: 0.096px; border: 0px; border-radius: 50%; height: 20px; margin-inline-start: 4px; min-width: 20px; cursor: pointer; background-color: rgb(237, 239, 250); transition: opacity 0.2s linear; opacity: 1; user-select: none; color: rgb(27, 27, 28);&quot;&gt;&lt;/button&gt;&lt;/span&gt;&lt;span data-start-index=&quot;764&quot; class=&quot;ng-star-inserted&quot;&gt;。&lt;/span&gt;&lt;/b&gt;&lt;/font&gt;&lt;/div&gt;&lt;div class=&quot;paragraph heading3 ng-star-inserted&quot; data-start-index=&quot;765&quot; style=&quot;font-style: normal; font-variant: normal; font-size-adjust: none; font-kerning: auto; font-optical-sizing: auto; font-feature-settings: normal; font-variation-settings: normal; font-weight: 500; font-stretch: normal; font-family: &amp;quot;Google Sans Text&amp;quot;, &amp;quot;Google Sans&amp;quot;, sans-serif; letter-spacing: normal; margin-block-end: 0.75rem;&quot;&gt;&lt;span data-start-index=&quot;765&quot; class=&quot;ng-star-inserted&quot;&gt;&lt;font style=&quot;font-size: 10px;&quot;&gt;利用の欠点とリスク&lt;/font&gt;&lt;/span&gt;&lt;/div&gt;&lt;div class=&quot;paragraph normal ng-star-inserted&quot; data-start-index=&quot;774&quot; style=&quot;font-style: normal; font-variant: normal; font-size-adjust: none; font-kerning: auto; font-optical-sizing: auto; font-feature-settings: normal; font-variation-settings: normal; font-weight: 400; font-stretch: normal; font-family: &amp;quot;Google Sans Text&amp;quot;, &amp;quot;Google Sans&amp;quot;, sans-serif; letter-spacing: normal; margin-block-end: 0.75rem;&quot;&gt;&lt;font style=&quot;font-size: 10px;&quot;&gt;&lt;span data-start-index=&quot;774&quot; class=&quot;ng-star-inserted&quot;&gt;特に外国のクラウドサービスを利用する際には、いくつかの欠点やリスクが存在します&lt;/span&gt;&lt;span class=&quot;ng-star-inserted&quot;&gt;&lt;button class=&quot;xap-inline-dialog citation-marker ng-star-inserted&quot; aria-haspopup=&quot;dialog&quot; aria-describedby=&quot;cdk-describedby-message-ng-1-17&quot; data-disabled=&quot;false&quot; style=&quot;font-style: normal; font-variant: normal; font-size-adjust: none; font-kerning: auto; font-optical-sizing: auto; font-feature-settings: normal; font-variation-settings: normal; font-weight: 500; font-stretch: normal; line-height: 16px; font-family: &amp;quot;Google Sans Text&amp;quot;, &amp;quot;Google Sans&amp;quot;, sans-serif; letter-spacing: 0.096px; border: 0px; border-radius: 50%; height: 20px; margin-inline-start: 4px; min-width: 20px; cursor: pointer; background-color: rgb(237, 239, 250); color: rgb(27, 27, 28); transition: opacity 0.2s linear; opacity: 1; user-select: none;&quot;&gt;&lt;/button&gt;&lt;/span&gt;&lt;span class=&quot;ng-star-inserted&quot;&gt;&lt;button class=&quot;citation-marker&quot; style=&quot;font-style: normal; font-variant: normal; font-size-adjust: none; font-kerning: auto; font-optical-sizing: auto; font-feature-settings: normal; font-variation-settings: normal; font-weight: 500; font-stretch: normal; line-height: 16px; font-family: &amp;quot;Google Sans Text&amp;quot;, &amp;quot;Google Sans&amp;quot;, sans-serif; letter-spacing: 0.096px; border: 0px; border-radius: 50%; height: 20px; margin-inline-start: 4px; min-width: 20px; cursor: pointer; background-color: rgb(237, 239, 250); color: rgb(27, 27, 28); transition: opacity 0.2s linear; opacity: 1; user-select: none;&quot;&gt;&lt;/button&gt;&lt;/span&gt;&lt;span data-start-index=&quot;813&quot; class=&quot;ng-star-inserted&quot;&gt;。&lt;/span&gt;&lt;/font&gt;&lt;/div&gt;&lt;div class=&quot;paragraph normal ng-star-inserted&quot; data-start-index=&quot;814&quot; style=&quot;font-style: normal; font-variant: normal; font-size-adjust: none; font-kerning: auto; font-optical-sizing: auto; font-feature-settings: normal; font-variation-settings: normal; font-weight: 400; font-stretch: normal; font-family: &amp;quot;Google Sans Text&amp;quot;, &amp;quot;Google Sans&amp;quot;, sans-serif; letter-spacing: normal; margin-block-end: 0.75rem;&quot;&gt;&lt;font style=&quot;font-size: 10px;&quot;&gt;&lt;span class=&quot;ng-star-inserted&quot;&gt;• &lt;/span&gt;&lt;b data-start-index=&quot;814&quot; class=&quot;ng-star-inserted&quot;&gt;クラウド会社へのロックイン (Lock-in)&lt;/b&gt;&lt;span data-start-index=&quot;837&quot; class=&quot;ng-star-inserted&quot;&gt;：価格、安全性、性能面、顧客情報の漏洩などの観点から、クラウドサービス会社にロックされる可能性があります&lt;/span&gt;&lt;span class=&quot;ng-star-inserted&quot;&gt;&lt;button class=&quot;xap-inline-dialog citation-marker ng-star-inserted&quot; aria-haspopup=&quot;dialog&quot; aria-describedby=&quot;cdk-describedby-message-ng-1-17&quot; data-disabled=&quot;false&quot; style=&quot;font-style: normal; font-variant: normal; font-size-adjust: none; font-kerning: auto; font-optical-sizing: auto; font-feature-settings: normal; font-variation-settings: normal; font-weight: 500; font-stretch: normal; line-height: 16px; font-family: &amp;quot;Google Sans Text&amp;quot;, &amp;quot;Google Sans&amp;quot;, sans-serif; letter-spacing: 0.096px; border: 0px; border-radius: 50%; height: 20px; margin-inline-start: 4px; min-width: 20px; cursor: pointer; background-color: rgb(237, 239, 250); color: rgb(27, 27, 28); transition: opacity 0.2s linear; opacity: 1; user-select: none;&quot;&gt;&lt;/button&gt;&lt;/span&gt;&lt;span data-start-index=&quot;889&quot; class=&quot;ng-star-inserted&quot;&gt;。また、クラウドベンダー依存となり、マルチクラウドへの対応ができなくなったり、他社のクラウドに移転できなくなったりする危険性があります&lt;/span&gt;&lt;span class=&quot;ng-star-inserted&quot;&gt;&lt;button class=&quot;xap-inline-dialog citation-marker ng-star-inserted&quot; aria-haspopup=&quot;dialog&quot; aria-describedby=&quot;cdk-describedby-message-ng-1-17&quot; data-disabled=&quot;false&quot; style=&quot;font-style: normal; font-variant: normal; font-size-adjust: none; font-kerning: auto; font-optical-sizing: auto; font-feature-settings: normal; font-variation-settings: normal; font-weight: 500; font-stretch: normal; line-height: 16px; font-family: &amp;quot;Google Sans Text&amp;quot;, &amp;quot;Google Sans&amp;quot;, sans-serif; letter-spacing: 0.096px; border: 0px; border-radius: 50%; height: 20px; margin-inline-start: 4px; min-width: 20px; cursor: pointer; background-color: rgb(237, 239, 250); color: rgb(27, 27, 28); transition: opacity 0.2s linear; opacity: 1; user-select: none;&quot;&gt;&lt;/button&gt;&lt;/span&gt;&lt;span data-start-index=&quot;956&quot; class=&quot;ng-star-inserted&quot;&gt;。&lt;/span&gt;&lt;/font&gt;&lt;/div&gt;&lt;div class=&quot;paragraph normal ng-star-inserted&quot; data-start-index=&quot;957&quot; style=&quot;font-style: normal; font-variant: normal; font-size-adjust: none; font-kerning: auto; font-optical-sizing: auto; font-feature-settings: normal; font-variation-settings: normal; font-weight: 400; font-stretch: normal; font-family: &amp;quot;Google Sans Text&amp;quot;, &amp;quot;Google Sans&amp;quot;, sans-serif; letter-spacing: normal; margin-block-end: 0.75rem;&quot;&gt;&lt;font style=&quot;font-size: 10px;&quot;&gt;&lt;span class=&quot;ng-star-inserted&quot;&gt;• &lt;/span&gt;&lt;b data-start-index=&quot;957&quot; class=&quot;ng-star-inserted&quot;&gt;情報提供義務のリスク&lt;/b&gt;&lt;span data-start-index=&quot;967&quot; class=&quot;ng-star-inserted&quot;&gt;：&lt;/span&gt;&lt;/font&gt;&lt;/div&gt;&lt;div class=&quot;paragraph normal ng-star-inserted&quot; data-start-index=&quot;968&quot; style=&quot;font-style: normal; font-variant: normal; font-size-adjust: none; font-kerning: auto; font-optical-sizing: auto; font-feature-settings: normal; font-variation-settings: normal; font-weight: 400; font-stretch: normal; font-family: &amp;quot;Google Sans Text&amp;quot;, &amp;quot;Google Sans&amp;quot;, sans-serif; letter-spacing: normal; margin-block-end: 0.75rem;&quot;&gt;&lt;font style=&quot;font-size: 10px;&quot;&gt;&lt;span class=&quot;ng-star-inserted&quot;&gt;&amp;nbsp;&amp;nbsp;&amp;nbsp;&amp;nbsp;◦ &lt;/span&gt;&lt;span data-start-index=&quot;968&quot; class=&quot;ng-star-inserted&quot;&gt;米国や中国では、政府がクラウドサービス業者に顧客データの提出を求めた場合、クラウド業者はデータを提出する義務があります&lt;/span&gt;&lt;span class=&quot;ng-star-inserted&quot;&gt;&lt;button class=&quot;xap-inline-dialog citation-marker ng-star-inserted&quot; aria-haspopup=&quot;dialog&quot; aria-describedby=&quot;cdk-describedby-message-ng-1-17&quot; data-disabled=&quot;false&quot; style=&quot;font-style: normal; font-variant: normal; font-size-adjust: none; font-kerning: auto; font-optical-sizing: auto; font-feature-settings: normal; font-variation-settings: normal; font-weight: 500; font-stretch: normal; line-height: 16px; font-family: &amp;quot;Google Sans Text&amp;quot;, &amp;quot;Google Sans&amp;quot;, sans-serif; letter-spacing: 0.096px; border: 0px; border-radius: 50%; height: 20px; margin-inline-start: 4px; min-width: 20px; cursor: pointer; background-color: rgb(237, 239, 250); color: rgb(27, 27, 28); transition: opacity 0.2s linear; opacity: 1; user-select: none;&quot;&gt;&lt;/button&gt;&lt;/span&gt;&lt;span data-start-index=&quot;1027&quot; class=&quot;ng-star-inserted&quot;&gt;。&lt;/span&gt;&lt;/font&gt;&lt;/div&gt;&lt;div class=&quot;paragraph normal ng-star-inserted&quot; data-start-index=&quot;1028&quot; style=&quot;font-style: normal; font-variant: normal; font-size-adjust: none; font-kerning: auto; font-optical-sizing: auto; font-feature-settings: normal; font-variation-settings: normal; font-weight: 400; font-stretch: normal; font-family: &amp;quot;Google Sans Text&amp;quot;, &amp;quot;Google Sans&amp;quot;, sans-serif; letter-spacing: normal; margin-block-end: 0.75rem;&quot;&gt;&lt;font style=&quot;font-size: 10px;&quot;&gt;&lt;span class=&quot;ng-star-inserted&quot;&gt;&amp;nbsp;&amp;nbsp;&amp;nbsp;&amp;nbsp;◦ &lt;/span&gt;&lt;span data-start-index=&quot;1028&quot; class=&quot;ng-star-inserted&quot;&gt;AWSなどのサーバーが日本に存在する場合でも、米国のクラウド提供会社は米国政府に情報提供義務があります&lt;/span&gt;&lt;span class=&quot;ng-star-inserted&quot;&gt;&lt;button class=&quot;xap-inline-dialog citation-marker ng-star-inserted&quot; aria-haspopup=&quot;dialog&quot; aria-describedby=&quot;cdk-describedby-message-ng-1-17&quot; data-disabled=&quot;false&quot; style=&quot;font-style: normal; font-variant: normal; font-size-adjust: none; font-kerning: auto; font-optical-sizing: auto; font-feature-settings: normal; font-variation-settings: normal; font-weight: 500; font-stretch: normal; line-height: 16px; font-family: &amp;quot;Google Sans Text&amp;quot;, &amp;quot;Google Sans&amp;quot;, sans-serif; letter-spacing: 0.096px; border: 0px; border-radius: 50%; height: 20px; margin-inline-start: 4px; min-width: 20px; cursor: pointer; background-color: rgb(237, 239, 250); color: rgb(27, 27, 28); transition: opacity 0.2s linear; opacity: 1; user-select: none;&quot;&gt;&lt;/button&gt;&lt;/span&gt;&lt;span data-start-index=&quot;1079&quot; class=&quot;ng-star-inserted&quot;&gt;。&lt;/span&gt;&lt;/font&gt;&lt;/div&gt;&lt;div class=&quot;paragraph normal ng-star-inserted&quot; data-start-index=&quot;1080&quot; style=&quot;font-style: normal; font-variant: normal; font-size-adjust: none; font-kerning: auto; font-optical-sizing: auto; font-feature-settings: normal; font-variation-settings: normal; font-weight: 400; font-stretch: normal; font-family: &amp;quot;Google Sans Text&amp;quot;, &amp;quot;Google Sans&amp;quot;, sans-serif; letter-spacing: normal; margin-block-end: 0.75rem;&quot;&gt;&lt;font style=&quot;font-size: 10px;&quot;&gt;&lt;span class=&quot;ng-star-inserted&quot;&gt;&amp;nbsp;&amp;nbsp;&amp;nbsp;&amp;nbsp;◦ &lt;/span&gt;&lt;span data-start-index=&quot;1080&quot; class=&quot;ng-star-inserted&quot;&gt;その結果、米国や中国のクラウドを利用する日本企業が有する顧客情報などが、米国および中国政府に渡る可能性があります&lt;/span&gt;&lt;span class=&quot;ng-star-inserted&quot;&gt;&lt;button class=&quot;xap-inline-dialog citation-marker ng-star-inserted&quot; aria-haspopup=&quot;dialog&quot; aria-describedby=&quot;cdk-describedby-message-ng-1-17&quot; data-disabled=&quot;false&quot; style=&quot;font-style: normal; font-variant: normal; font-size-adjust: none; font-kerning: auto; font-optical-sizing: auto; font-feature-settings: normal; font-variation-settings: normal; font-weight: 500; font-stretch: normal; line-height: 16px; font-family: &amp;quot;Google Sans Text&amp;quot;, &amp;quot;Google Sans&amp;quot;, sans-serif; letter-spacing: 0.096px; border: 0px; border-radius: 50%; height: 20px; margin-inline-start: 4px; min-width: 20px; cursor: pointer; background-color: rgb(237, 239, 250); color: rgb(27, 27, 28); transition: opacity 0.2s linear; opacity: 1; user-select: none;&quot;&gt;&lt;/button&gt;&lt;/span&gt;&lt;span data-start-index=&quot;1136&quot; class=&quot;ng-star-inserted&quot;&gt;。&lt;/span&gt;&lt;/font&gt;&lt;/div&gt;&lt;div class=&quot;paragraph normal ng-star-inserted&quot; data-start-index=&quot;1137&quot; style=&quot;font-style: normal; font-variant: normal; font-size-adjust: none; font-kerning: auto; font-optical-sizing: auto; font-feature-settings: normal; font-variation-settings: normal; font-weight: 400; font-stretch: normal; font-family: &amp;quot;Google Sans Text&amp;quot;, &amp;quot;Google Sans&amp;quot;, sans-serif; letter-spacing: normal; margin-block-end: 0.75rem;&quot;&gt;&lt;font style=&quot;font-size: 10px;&quot;&gt;&lt;span class=&quot;ng-star-inserted&quot;&gt;&amp;nbsp;&amp;nbsp;&amp;nbsp;&amp;nbsp;◦ &lt;/span&gt;&lt;span data-start-index=&quot;1137&quot; class=&quot;ng-star-inserted&quot;&gt;EUではこの状況を嫌い、「GAIA-X（欧州主導クラウド基盤）」のような&lt;/span&gt;&lt;b data-start-index=&quot;1173&quot; class=&quot;ng-star-inserted&quot;&gt;独自クラウド主権&lt;/b&gt;&lt;span data-start-index=&quot;1181&quot; class=&quot;ng-star-inserted&quot;&gt;の動きが進んでいます&lt;/span&gt;&lt;span class=&quot;ng-star-inserted&quot;&gt;&lt;button class=&quot;xap-inline-dialog citation-marker ng-star-inserted&quot; aria-haspopup=&quot;dialog&quot; aria-describedby=&quot;cdk-describedby-message-ng-1-17&quot; data-disabled=&quot;false&quot; style=&quot;font-style: normal; font-variant: normal; font-size-adjust: none; font-kerning: auto; font-optical-sizing: auto; font-feature-settings: normal; font-variation-settings: normal; font-weight: 500; font-stretch: normal; line-height: 16px; font-family: &amp;quot;Google Sans Text&amp;quot;, &amp;quot;Google Sans&amp;quot;, sans-serif; letter-spacing: 0.096px; border: 0px; border-radius: 50%; height: 20px; margin-inline-start: 4px; min-width: 20px; cursor: pointer; background-color: rgb(237, 239, 250); color: rgb(27, 27, 28); transition: opacity 0.2s linear; opacity: 1; user-select: none;&quot;&gt;&lt;/button&gt;&lt;/span&gt;&lt;span data-start-index=&quot;1191&quot; class=&quot;ng-star-inserted&quot;&gt;。&lt;/span&gt;&lt;/font&gt;&lt;/div&gt;&lt;div class=&quot;paragraph heading3 ng-star-inserted&quot; data-start-index=&quot;1192&quot; style=&quot;font-style: normal; font-variant: normal; font-size-adjust: none; font-kerning: auto; font-optical-sizing: auto; font-feature-settings: normal; font-variation-settings: normal; font-weight: 500; font-stretch: normal; font-family: &amp;quot;Google Sans Text&amp;quot;, &amp;quot;Google Sans&amp;quot;, sans-serif; letter-spacing: normal; margin-block-end: 0.75rem;&quot;&gt;&lt;span data-start-index=&quot;1192&quot; class=&quot;ng-star-inserted&quot;&gt;&lt;font style=&quot;font-size: 10px;&quot;&gt;クラウドサービスの提供者&lt;/font&gt;&lt;/span&gt;&lt;/div&gt;&lt;div class=&quot;paragraph normal ng-star-inserted&quot; data-start-index=&quot;1204&quot; style=&quot;font-style: normal; font-variant: normal; font-size-adjust: none; font-kerning: auto; font-optical-sizing: auto; font-feature-settings: normal; font-variation-settings: normal; font-weight: 400; font-stretch: normal; font-family: &amp;quot;Google Sans Text&amp;quot;, &amp;quot;Google Sans&amp;quot;, sans-serif; letter-spacing: normal; margin-block-end: 0.75rem;&quot;&gt;&lt;font style=&quot;font-size: 10px;&quot;&gt;&lt;span data-start-index=&quot;1204&quot; class=&quot;ng-star-inserted&quot;&gt;日本国内に限定すれば、富士通、NEC、日立、NTTコミュニケーションズなどがクラウドサービスを提供しています&lt;/span&gt;&lt;span class=&quot;ng-star-inserted&quot;&gt;&lt;button class=&quot;xap-inline-dialog citation-marker ng-star-inserted&quot; aria-haspopup=&quot;dialog&quot; aria-describedby=&quot;cdk-describedby-message-ng-1-17&quot; data-disabled=&quot;false&quot; style=&quot;font-style: normal; font-variant: normal; font-size-adjust: none; font-kerning: auto; font-optical-sizing: auto; font-feature-settings: normal; font-variation-settings: normal; font-weight: 500; font-stretch: normal; line-height: 16px; font-family: &amp;quot;Google Sans Text&amp;quot;, &amp;quot;Google Sans&amp;quot;, sans-serif; letter-spacing: 0.096px; border: 0px; border-radius: 50%; height: 20px; margin-inline-start: 4px; min-width: 20px; cursor: pointer; background-color: rgb(237, 239, 250); color: rgb(27, 27, 28); transition: opacity 0.2s linear; opacity: 1; user-select: none;&quot;&gt;&lt;/button&gt;&lt;/span&gt;&lt;span data-start-index=&quot;1258&quot; class=&quot;ng-star-inserted&quot;&gt;。&lt;/span&gt;&lt;/font&gt;&lt;/div&gt;&lt;div class=&quot;paragraph normal ng-star-inserted&quot; data-start-index=&quot;1259&quot; style=&quot;font-style: normal; font-variant: normal; font-size-adjust: none; font-kerning: auto; font-optical-sizing: auto; font-feature-settings: normal; font-variation-settings: normal; font-weight: 400; font-stretch: normal; font-family: &amp;quot;Google Sans Text&amp;quot;, &amp;quot;Google Sans&amp;quot;, sans-serif; letter-spacing: normal; margin-block-end: 0.75rem;&quot;&gt;&lt;font style=&quot;font-size: 10px;&quot;&gt;&lt;span data-start-index=&quot;1259&quot; class=&quot;ng-star-inserted&quot;&gt;世界的には、**AWS（アマゾンのパブリッククラウドサービス）**が知られており、アマゾンの利益の大半を稼いでいることから、Microsoftなどもクラウドビジネス（Azure）に参入することになりました&lt;/span&gt;&lt;span style=&quot;&quot; class=&quot;ng-star-inserted&quot;&gt;&lt;button class=&quot;xap-inline-dialog citation-marker ng-star-inserted&quot; aria-haspopup=&quot;dialog&quot; aria-describedby=&quot;cdk-describedby-message-ng-1-17&quot; data-disabled=&quot;false&quot; style=&quot;font-style: normal; font-variant: normal; font-size-adjust: none; font-kerning: auto; font-optical-sizing: auto; font-feature-settings: normal; font-variation-settings: normal; font-weight: 500; font-stretch: normal; line-height: 16px; font-family: &amp;quot;Google Sans Text&amp;quot;, &amp;quot;Google Sans&amp;quot;, sans-serif; letter-spacing: 0.096px; border: 0px; border-radius: 50%; height: 20px; margin-inline-start: 4px; min-width: 20px; cursor: pointer; background-color: rgb(237, 239, 250); color: rgb(27, 27, 28); transition: opacity 0.2s linear; opacity: 1; user-select: none;&quot;&gt;&lt;/button&gt;&lt;/span&gt;&lt;span data-start-index=&quot;1361&quot; class=&quot;ng-star-inserted&quot;&gt;。Cloud NativeにおいてもAWSが最も多く利用されていると思われます&lt;/span&gt;&lt;span style=&quot;&quot; class=&quot;ng-star-inserted&quot;&gt;&lt;button class=&quot;xap-inline-dialog citation-marker ng-star-inserted&quot; aria-haspopup=&quot;dialog&quot; aria-describedby=&quot;cdk-describedby-message-ng-1-17&quot; data-disabled=&quot;false&quot; style=&quot;font-style: normal; font-variant: normal; font-size-adjust: none; font-kerning: auto; font-optical-sizing: auto; font-feature-settings: normal; font-variation-settings: normal; font-weight: 500; font-stretch: normal; line-height: 16px; font-family: &amp;quot;Google Sans Text&amp;quot;, &amp;quot;Google Sans&amp;quot;, sans-serif; letter-spacing: 0.096px; border: 0px; border-radius: 50%; height: 20px; margin-inline-start: 4px; min-width: 20px; cursor: pointer; background-color: rgb(237, 239, 250); color: rgb(27, 27, 28); transition: opacity 0.2s linear; opacity: 1; user-select: none;&quot;&gt;&lt;/button&gt;&lt;/span&gt;&lt;span data-start-index=&quot;1400&quot; class=&quot;ng-star-inserted&quot;&gt;。&lt;/span&gt;&lt;/font&gt;&lt;/div&gt;&lt;/div&gt;" style="text;whiteSpace=wrap;html=1;" vertex="1" parent="1">
          <mxGeometry x="25" y="27" width="748" height="759" as="geometry" />
        </mxCell>
        <mxCell id="_r5Ha-2MLwBzfNucuxSq-3" value="メリットもあるけど&lt;span style=&quot;background-color: transparent; color: light-dark(rgb(0, 0, 0), rgb(255, 255, 255));&quot;&gt;デメリットは？&lt;/span&gt;&lt;div style=&quot;&quot;&gt;→レートの影響を受ける&lt;/div&gt;&lt;div style=&quot;&quot;&gt;→サポートの温度差がある&lt;/div&gt;&lt;div style=&quot;&quot;&gt;→選択肢が多すぎる&lt;/div&gt;&lt;div style=&quot;&quot;&gt;&lt;br&gt;&lt;/div&gt;&lt;div style=&quot;&quot;&gt;TCOを計算するまでは安価といえない&lt;/div&gt;" style="whiteSpace=wrap;html=1;align=left;" vertex="1" parent="1">
          <mxGeometry x="846" y="47" width="379" height="155" as="geometry" />
        </mxCell>
        <mxCell id="_r5Ha-2MLwBzfNucuxSq-4" value="cloud nativeの後援会に出て登壇するメリットは&lt;div&gt;宣伝メリットがある&lt;/div&gt;&lt;div&gt;会社や個人が宣伝効果と仕事の機会を得ることがある&lt;/div&gt;" style="whiteSpace=wrap;html=1;align=left;" vertex="1" parent="1">
          <mxGeometry x="846" y="216" width="379" height="155" as="geometry" />
        </mxCell>
        <mxCell id="_r5Ha-2MLwBzfNucuxSq-5" value="&lt;img src=&quot;data:image/png;base64,iVBORw0KGgoAAAANSUhEUgAAARwAAACxCAMAAAAh3/JWAAABEVBMVEX5x8jvZmf///8AAADvZGXuXl/5ysv50NH5ycr5xMj9ysvvYmPuXl7/zc73xcf6yMj3trfxeHnzlpf6zcvtamzvc3T2sbLwg4Tzi4v73Nv/0dL41Nbue3739/fwamr4ubzyoaHb29v5wMD0j4/54ePn5+fJycm+vr6amppiYmK9mJu1kZF4YmJLQEBtV1pYRkmKc3TcsK/pvL6lpaWRkZH88fDzpaPtSkzNqKmysrI5OTnh4eEcHBwpKSlCQkK4uLhPT0+cg4M/MTV7e3tZWVkRERFeUFE1KyyFbnBsXV6Dg4Nubm7vm5buUVWnjo0sJiYaDhNjUVaUgIHpjJMSGhq0l5kkJSTDpKjeusB3X2UACQJFKspPAAAZMklEQVR4nO1dC2OaSrBWF5DyWIxGo2tMjJpHQSKQ6iHW5ARbEfvQ29xj29P//0PuLGiiRs1DNL09fq0C4TV8zMzOzj6MRLbYYosttthiiy222GKLLcIDFw8bHH7O/d/woQsQx8+SYCFwPRY+CtwzuKmsQYBY/rflBvB0CdbCTSwWD4Gc+HpEi+WeKkBp6WVOTmKx09P77ctC4Wy8fnwaOzm9jBUKhXln1kMwrHw4XDxA5ckSPDz3BFH8DWsFBOQ00XUzdnNzfX1zHEOFYzQ+7PQmFrs4OqbH/qnkKPPPP0agD0foAjhAxycohk7eH6PjFrq6QlejQ06uL6/oUbGT5p9KDp5z8uVl7OoidvQZdagavY/9fR1DxzH4HKOjE3RceHd2dvYO1t4d+YdT9frvkHOMrt/GgB9qQkfw5OhyRA6Y1dH32Jicj8HRH9DpnGusmZyjy78vL/13c3Z8cRQ7PYtdXkzsRifzPWEI5AA7J8GCfheuwblQ+6EExW7ejQ86uQ646RzPU501k3PyCX365N8WHb/9O3bxIfb+M5WxcBF7/x7UvYM+roscuHphTM4lonT4Pvo49nbingX6p5OPV9Q3bZwckGgsRcwnp/D2qBA7OWqenZ5dxECXzz6tjZyYr7EF+moC/SwU/CL7aEpZ6Z+O/ZWNk/MRjUrJs5uAnNhl5wz0++rk7dv3zQ+x2FxbD4mclbEhzYEiAuKJ2FsafRVa72InNNaAF3YxL7wYI2xyJnXjeImvu8P6yTk9eV8IbP74HXiBozNELcl3gMcffP+4CKuSc3b98ebm5o4F8CqF2Nnbz5/fgr11PkHQfHr5rvUhtrhMWDs5Fzc3F0etwCe/BSquP1NXcOkXDjdLHE4I5BwfnZ2ejFXz+G2TGvj7EwB4PfQJvPC7M1DoGDi/o/nv6I+Nc3x8PG2eBn64UDj1y6OPn0FzzmiV4uLz0cUlOjs7gapF62zu6X82Odef341K8A+xo1P04fri5OTz55P3n4GMzukRaM67d++PbvwI6L9GTmHC3V9efUAXYFCx5qW//alzdwA6uph39p9NzhG6nNqmDub4s8/HyVWrQMNEn5XOIo8cBjlceHxMYdV8zulMDPWRkvPBZ+KSJjNiF8EBn94vEKD+ZnVyIuvJBBaeLkBuLQLEnpGoXQy8jjRlXXmGAOuw7EL8GRIswRuM34QMrDxLNCoBDj74fvXRzWUHRp4nwRZbbLHF7wSeCwP8/2MBFoNTkuUswP+6xzM3k6UXhxdcIruzOvYyocQ30+AzLCMyDCNOfIlLvu4PnNiEb7b4QuG4jMT4iI4XUX91ZpOZsxm93xQZKRk+O0o0JLCJlym2Ir6yAIvBZ6SQZBNf9uZeXYAl4IphvTgm+yLZuGJo5JQ3S47IBmBGy2XHvpic5wjA/j7kiMlMgB34NOCz7OB1kCMWS6VSAj478DmET2bZwRsmp4FL+RgItc9hHMtjXFry5tZDTiLDxzKJw/3DRCIWTyR+J3KKlVQ9Vi/G/krVYVmvf9m45tTz9VghE/srX6jT1pjGkrezcc2pVEqVCshWydQT9UZ9mWxrIqeC674ADRCgWM/8XuTk6/VANgyybZ6cSiVeH72d0u9HTqVQCMipxJL1xsbNqlKpjwSo1GO/GTn1TIm6wr8q8VipHi9sXnMKIMBhCQTIFXA9V/idyPlSp/2ec/Wv+VwJl0CvN605yUpJUZRU/WsqnklkMpWlB284CKSxlyRJbJSVaAQmvVoQ+BQBNk3Oc7AWcp6D8Mnhl7mRZ4F5mWz8srjuWRCTodfKXz1joESZkAQ4DD0ZyDVYkXkM0UePENly6mUCgOoEAI4YcS5gz/wdkye9ONu2DNzho1nKNLP7eJYy9dL3xpWSez6i4t587DMHC/bs7TFMsCwnXvhyluPR/Ha8yGbj60+wE1FS5l+7xO6m5oNLiexYgLVk2B8FB+SsQWUf3EaUSnMfkE8AOQtOUkR2g82//EMAOXvcwz+HfefF5BwuI0faFDmgnZFR6/wkvrB7kQd/LPFhtRXxHLWPVByeMzXPRPmEtExzNmNOvFLcEaU5gNKeffhXdrf88saqybsmd3Z9MEyaLtLZmcsu15zNkJNqMKwoLSozHwLogaB0VdH4yMG4jjCGKGWmrvqIz+E3YFepJMumGyVe4KhuB/p9vxqspCa/lMweK+2sSg63J6YziQTU/f0P/d4To1PP+xg5K0rwFCGLrJRMPSdYUfhUJirtrRZe8CWWLc14e5JmG5NyPGJW61ccvuSHmM/siEnPaqz05vhD6WDaw8gyV5amot1HHPL6yeHK4v4LvCv3hU2v5JTH5Aiy4CMiGwbJSl+myHltzeEO2MxLPJvCSCs1UVNyUkrE6gdQuS5ySZadJucRn7NupwOmz4zvIcjPOJHbY4urksNFBAfpbYqfLeQQLssWn0GOsnZyEmw6FTgcwfQeYQdM4G6dK7Mrtd+PyXHjhGKANBJ5QM5is+IVll1LhXPqJhkgJ1gV1PYdOcI9CxFhBIWornn3dy4ZDjk12eYVUkO3qvCQnMUO+RXJEUztjgVBcwIIBkLhk+NaSM/fItf89TzNKYnSa5DjlxzNMU8Kj/RaTa/pQwPp3L3nDoOclALkEAcB65zakudozhJyGDYVxliHpTI+IEfQVNnqkfEBQI5FiCzHwXWSCWMLTXMI6SKkylprjuYsJUcU1u6QZ8iRI6Sm8+f3GkLJMU1BVtHgp70WcgQLCnFBnUfOMrMCcla4/dNknCKHWFXZMghy7ostIOeNi0wLIdxZEzkygc98s1rskEsis2lybDT0sGBb9wdQzeFRu4aGBK2DnK6q+fDmkbNcc9aepJwmB9fIvx2iTL4SSg7YFKqRVOjkgENW22NUn0kOaM5GfY6udYllTtclKDkC6SErEr7mxGlceQfluQ75xc0eT5ZxSnPyhAobVARH8DVHIHH4hEsOTVnMJKdTaempKQvQnA2T03HuMc5hADlOP3ALoZIT4fZpsutwAjTZNcXFUoe8WZ8TsaoTuEvwCK4+xoSfXp0cXjlgpxPUD9OkSzTnUGQ2So4iT+Deru7/NnniyuTQBHt6lGCPBsvsITedJl1aWm3UIT8Pq5PjN3imUqk4UBC0q84KstwhM6l1Z7tek5yxCEDB/PkPl5oVw3D/EXLmXwmK+4XJrhIb/Q+Qo3AJKcrRTK0ym+Zf6nOAnDBuvwwz5AiEOl7yhHxpCORw+Uouz+FSKZEolXAqX6nE+Sl6HiNns5ojaK0uhc5PVepGIeFkenB1cnL5RDYqSaPGTliRpHSylJv0PksdMht9kcY/B1PkCMT8mSckT1rt+zcoc6ZpYlnmLNO0SGiZwHjjrwcDlRhG+mvyiR/RnI2SAyGy3xTQsf7nW2ccQ1i1c8Nxqq7rL2r9MTurkpNPZdJ++/h4rKjfcL6XmJxLZYlD5kvSZn2OoGnU5eQHbduqjaJhwe77rQOW4S/I+dgdrUxO9qCRSCQyjWR2b28vW042MrBZnGoMW6I5CvU5mwwCgRwBigyCaog7vyfHrhpe3zIsWBhyeOSURREqDEx6r5wElPfSjEj7WTyVnEMputEgUFA1v5bAW+fWBDkEg68BzeEtcDlhkjPyM6PeoczDfruLIyAgBzQnnFnXF2NGc+wu+Jwurk6SYztqXwPNMVTNCVVzHu3UvFRzNu2QwefkKcgUOYrqaJZlCECRGb7mzGDGrBY6ZN+sVrj9kzBjVvZVs9m8mtYc07YsGzQHFuraNeepPidyyB6ENNXSYsxqToApcrCtAi9GxFRt854c/nXJAc1ZUFsNEbOa027r0z7HbBuaqjqu7vkLL7yi/AnkLHPIYHEb1hw5laL/q1p3XBLIplPtVaueU61We54qjAVaOUIufWX9EQwTATIU7sxU9WGZWUkHG3bITtDrOPKvedccbDkWLd6xBfEhwZoWVoQciVdwY4/x61RRf8iZdJDN8JUnJtiVJdmM0DBFjlkbYyJbHFQ3lckNijBSFn61PJ+Ki6wSj+cqlbwQwZOm8urkJNj0fW+Tudni+aDkhBS+0+79o1Ul8kRywKwWuaPwQJuPXuTXuP0Vu5NOXGrZwJBFYXBiA+REuDTbeMFdeOX+da8swksGhmyGnOKL8qS0h+7KNj/qI0+YBwNDRj3nS+wuGY2quj8paKgoSUGTRWqtdXNll80++zG5BrvyZFC8ktyl1U0mOhqRyOyM5ibj+WTaL+TpMEZ/sOTOWLvpSaN6alBjZfbXMaHZnYwZkd1X5gyrWgyODpdYudVK2ZWmR4ZAqR50Q+Z2JFaaHjPCBkOQlchukFGdaCeV1jHGcwwuw7JMOZN4MjLJA0lKrtqMz5Wlg0xpCknWdz5QEO7O7CmKrN9SDNY8uwveU1jObx740s7M23gELAi/sqlzjJTgFD4y7oDCK3w86+sjl5YyviYr9D/8U3guKfoDKlOiRJuMlWDEoP8d3wstppgLPpVI7qR304DpryiTnoOdbEZeXRxFZP26yCjsNGV/QAW1HuGA6sK4I4y/4BvsHjc+afqnBUcnrRH83JHC8i6LOSHcEcF3CEZ2yLIh87zA9RCwM3rOVJQtCbKpapqNiRUsGlJADssKctWYDFLXT858CLuSP7DQ52Lma2X45Mh6u0YbPOzqLTKFO3KkktU0hqrqnPuLftUbaw4lx7snB2J58FCvRA5bWltaAJ4THq5LCJGJ0XFUw5BH5HBwW9MhBCvkjUeIEiHEnU+O7PXk1yNnQegaBgJydJnaVtVDtj0ih+epWZm3pucYTqRqVR3HIOeNYBD3JDm0p70L6vaK5Kzt4grrm5XfNm/ZfSMgJ6tA6XxAySGmamNcBadjYxk0Z98vuMU7cggaEs8UXtWs1nbxETlEp2WVZno+ObTdk05pBGZlaqat4apFF+RbQ2SkYLYjnxxagPWqBu1M/lrkKNH1mpVPTpAnMQPNEaPR3d0D36wUxzBsXI1ohqGCzxGjuwe7BwcBOURDecMiiHYLfjVydtk36/Y55JxCG5HDlgknEF9zsCXzJq4qlsyZvkMeTe9Bycl7Wq9KIkR5LXKUCFbEr2FMPbDg+iNygl9wuCOHllaBQ6YBjlWlcY6K/dJKCYJA2bv1ennqePySdIPk4AgXz9OMZT6VUnAigXEqlc/lKrlcnI+EWqyPzcoDVFXTMANy+IAcq+bYtj30vjk/bFv1jIAcHJBj2LYgTzSDbIaceCXHHRbLO+y4DnVXm0pniwmcrwBDYTVQj8hJmRSWabQdYUJzBNvrAareOXyfO3ii+kDNym9dS9EYaUPkcBW+mJZoj5loNHow268IyhFJin6hXa9CUqCAnGD8KzE9IkQmNAdr2HfUwbc9pNWHwKwg8kMTkPkNkINzpagkPjLFGO0l0siFM3qQ+hxF7nQHA9rRruWXysWg+gARBD/VA1uQG+JdhBzB5j0sZROawx9+ZQ6eMv2aVA7lJ+Vp9TLB8WQMGSq/ZM9PWaR22MZM8i2VDSYD5KI0mzFVByb7YfX5XYKK+KS58USpFA45YA5+364JlCU/6KQ52C+ZKZTFYL47LilGi9O79iRxfcHYWNZMIpEGh7NEeahRMY3S/z75J9CWI5WezYWOZ7Xjsn7O1C8S2HEuNMhzp/bZWUgvmm7iWeAz0m7jMFHcoR551I3RZyT45QuKXZpL3Zf2QyKH54qjgSHpYJneS4xyr1xmb3ouvmxi3N+Ea+xNz8VXXrve+L/fEQVS9v1ejAnajXEnfRA9ONjd2c8mi36GOZNlWDHKhEXOuJUlTltZIPiFz50KjNxKHDx03J/R6F45+NFJUXoSrHBrHwcbkBO9m7WRdmMs0mn7M41GMZndibL+tFX+EeGRE2BJRxNaEs1P5NMJStbeBeVejqkf8Bh3Y2QnOzOOdm2anPkn0U7ar0TOEoROTiQhHfDz424++TXL4Xn7uNJXadQMuu4+pZFXIof363G5TAK+cnmat/eVgf54IO2SksspGZyjNbs4N+4FQ3f4w0kSCQXqgXDU2rsGvgY5+QqfgHrcAZgt/N/dTzYOUxXasQvncziT3GHG7aBsdD+Z4PxdqUqpuDMaEBqU8mw6eZhbd+/ATZMDQS99Qmbsz+jkwYAiXDyXhIdmJhxdsC8DwWfq64MJxxlR+ppYMzubJiePaQE40yeQlQ5yWKkUGXaqvyAtHaTdTAW/yY1Hk4wmY6ZFBrvbyJP1Op6Nk5Okje5piJyYIDhmmZ0viUQjwUfiaTpgJJuOjgrM6E4Zoq8MU4FIlfHjsGJ5b39nZx/iDRqAZdLJ+B9GThloyTYm+i9kivugOkBOHqgS0/4wmiD4LJbT8BepgvkM3QU+KJv8UiwWk+X9XT/c+PPIEX1DEn2tEcWRIQXk3M0hPqpz0UjrgK1gJcHe2dlEBPYHkjO3iuuTM18SIIdPzP3Jgf8KOexycub/qgqQE4ZIi/Hk3/97VXIWak4YIi0GHd39JLDZVyJHej2zUnKZ5b8rGIjBSslcKOH6830OkKMsNKt1V7DilVJZZGdHa4zB+OH6XiKXexMOOck5r4IRv5b4SG5OQhLi4HQFKlbi7D5frvU1Pd6Dz1fypUxynxllKNmJRbpMqz45PqyJC9/kSllRGpXUQaEtSdEkR202V0ru+q1m96nQ9BdcAe0QKnymvDvZP3E321ByG6h7+uC5PK32xjll3F0T+22gUBMOeSAGB69CKUGI9wUAEV8J7pxXfPLhLcEDl0bTj5f8zbvhOlSYeNC926/Tc5uYi30aCh9R7kBzJmuxal7hubgP2kcUz+wLOo0qDyYAmRV1HZI9CmVmucUWW2zxTAjTrTyKQHuIwyeYcnNBE5Bwt0tYdNC4r7kw5yajGwv0IGHi9PsO6sHuQB5/QY8L7uXvGAkXrMt3d1zcYiVEloiyAApxbDkiy7TdXqBfeGiZti3btkC7mWH7bn4c2lMvYtFRr4JsmUSw6ASKsCYIuA8HYYvQAo0WojzmcUQw+YhgA1RLEMgQvmfubGmWFnciskM0SwgEkE1TFizVMfs4Ims2bMiEc+BWloUFlYdLWcTBtm0KxMYgjBqh64JpyAJIJtiCPLSAKIvO2ucPhcD+LyhhEwR1sGaqvCDjvvrUWfcFuWd0tbxx1fzHJXYL6dh2XaPW/tmuuR1v6DQ7uhX0X8TOuW4QQ2t3e6arD9yIeU6wVdV6hNPRuS1bbVeQzVYbmabu1noyQVxE8G51HTmW4XRraLbwtZCH/kXEvLKbmt1rXg08oumuYfWvuv2mHTHdnus5vaaOmrZXRX3Bda5dt6+2WtXmZ0tHIMzg1tGdGjFb/SaQ5uRRvt/Rq0TQOqogV7stndzW3JpKtCoQ2RqiWsdSDa/1P8YT2bH++dVzfzUJ6WJiDX44P1zTNVyvbeq927bn5pv/DnumQWFqpuyqVRM0x+p77lC2/vnHJqjpdsmPnvev7QxtWYUX/YvYdGJObHZBY3pe1W07ZtPuDXszzZSC2dUGQ5Q/9zTU0wjWf9xa1nfbxj967m13YLmOrg9toup6Xs73dEt2f7TbhqG5VcNtmvY/qmf39eGgV739rvcGHaP1XUcu0fvVKq7+tExLzt+CTmqqppJzUFsT9fWeC1f90RoOn2hYnG3rjm3JmifLzrCvyQN10HO7LbN1+6+r2Ua1W8OmCgDVF+S+881yZMXqV90h6WpwyqDGu2bfgWeyPK1/LhP3ltiO23Ow4+gqaetVt9o3m7D4RqbvLPz8fttykIU059dAlo2+gGUX9MEY6jXP9VTkmnof2P+JCB44NsItt/e929N6+u2tYX03kI3dttuzXUznTQX16A9/EYIs21R+6BwyZQvF4ZEQkINMRGzkee2e/M3TuzXzieQItqYbGpBTjctaf0DUnuPBo+t8x/i3pfat2hBMPnCrCtzO7DnVeAosqGXaRl4m7WE3By+578TBZzgdnlR7A1vON22ZXGGrZXWHravmuepUfyBnRiQBjKXjedZQR91mkxhwH0X+J4fbP5qDW7dqaf24fuOk1BoiCvDc07oYOc1b7ZvuVfuWWtUJcXVXN85lZFk/2sTRVIdYtSpPFGK1+iCs05WJ1SGy7eZc1WgPr1odC4T1zp9qVrgLsrWrstAcqBF92G1j3AM7/m4PnGq35xLXvZurgkdNlXiafuVaV7rh4lbPdfo1tWNw8HZ1eEceL9fOiYXI1TnYPbpq/7K1Poq4nmuc6z00+75M+8cvcLGaR3TLUnCrawpyt9d11OsBHA0+hLRSsmC3hrKsumAxngEODN4DUNQyzZbr2oZrDLxfGLnudZuY6FvN9NReu8t1BjaIYcMZNrIFgtBAb+UHQw+23JpX6+pP9chEph3MFFALKCBkLCv8G16RMRQ7KQ7LPIGC4v5QQeE4WlrxlizDGRYHZ2AoXxSCUwqUZQqcL3CwFysKXBVDMWPKJlxP5shDXRYEMFU4RLHopAMEBIDCD8N/OJOeKsCdFYsWP7BBaEHJyRZUvWTMCwoPcnEmBvF4WoBa8AQYcxZPYCdwCiUmjUUwBxqfAlEsxbSoMJjA6dasJI9DebDyjLMWngPhhTJaCQkTUxTMRGhLJQlipG2dcIsttthiiy222GKLLbbYYostfhv8HxNawzN2k49xAAAAAElFTkSuQmCC&quot; alt=&quot;マイクロサービスとは？ 今さら聞けないDX関連用語をわかりやすく解説｜DX SQUARE&quot;&gt;" style="text;whiteSpace=wrap;html=1;" vertex="1" parent="1">
          <mxGeometry x="24.997142857142876" y="821.0047767857142" width="28" height="36" as="geometry" />
        </mxCell>
      </root>
    </mxGraphModel>
  </diagram>
</mxfile>
